<?xml version="1.0" standalone="no"?>
<!DOCTYPE svg PUBLIC "-//W3C//DTD SVG 20010904//EN"
 "http://www.w3.org/TR/2001/REC-SVG-20010904/DTD/svg10.dtd">
<svg version="1.0" xmlns="http://www.w3.org/2000/svg"
 width="600.000000pt" height="600.000000pt" viewBox="0 0 600.000000 600.000000"
 preserveAspectRatio="xMidYMid meet">
<metadata>
Created by potrace 1.11, written by Peter Selinger 2001-2013
</metadata>
<g transform="translate(0.000000,600.000000) scale(0.100000,-0.100000)"
fill="#000000" stroke="none">
<path d="M2838 4745 c-1 -2 -28 -6 -58 -10 -172 -20 -408 -90 -550 -164 -216
-113 -314 -184 -470 -341 -331 -333 -508 -762 -508 -1235 0 -113 19 -313 32
-333 2 -4 7 -23 10 -42 7 -45 57 -210 84 -277 139 -343 392 -640 720 -842 45
-28 82 -49 82 -45 0 3 12 -3 28 -14 32 -23 148 -71 252 -105 300 -99 631 -112
949 -37 193 46 397 135 561 245 123 83 155 110 270 225 196 196 328 411 420
684 28 82 48 153 56 201 42 265 42 477 -1 690 -113 559 -499 1036 -1019 1259
-140 60 -271 98 -436 127 -59 10 -413 22 -422 14z"/>
</g>
</svg>
